<svg version="1.1" id="Layer_1" xmlns="http://www.w3.org/2000/svg" xmlns:xlink="http://www.w3.org/1999/xlink" x="0px" y="0px"
	 width="100%" viewBox="0 0 94 100" enable-background="new 0 0 94 100" xml:space="preserve">
<path fill="#000000" opacity="1.000000" stroke="none" 
	d="
M1.000000,73.000000 
	C1.000000,49.099480 1.000000,25.198961 1.000000,1.000000 
	C12.019100,1.000000 23.040892,1.000000 34.872143,1.276283 
	C34.721359,2.061634 33.728519,2.517989 32.806210,3.088396 
	C27.169701,6.574325 20.602406,9.166349 16.120012,13.780360 
	C6.724658,23.451593 2.629815,35.469467 3.924365,49.283195 
	C5.719022,68.433411 16.518641,80.494385 33.737331,86.875397 
	C51.423119,93.429512 71.633499,87.073700 83.233047,72.200874 
	C91.729286,61.307068 94.496178,48.691841 91.587173,35.427036 
	C88.109528,19.569336 78.219231,8.687975 62.847034,2.977170 
	C62.090878,2.696255 61.609390,1.675988 61.000000,1.000000 
	C72.313538,1.000000 83.627075,1.000000 94.970306,1.000000 
	C94.970306,34.255287 94.970306,67.510612 94.970306,100.882965 
	C63.666935,100.882965 32.333538,100.882965 1.000000,100.882965 
	C1.000000,93.578583 1.000000,86.258034 1.371320,78.464874 
	C3.418809,77.738342 5.094977,77.484413 6.905162,77.210182 
	C5.686913,74.973953 4.790641,73.328743 3.910722,71.713554 
	C2.793411,72.207375 1.896705,72.603683 1.000000,73.000000 
z"/>
<path fill="#E38E6A" opacity="1.000000" stroke="none" 
	d="
M60.531349,1.000000 
	C61.609390,1.675988 62.090878,2.696255 62.847034,2.977170 
	C78.219231,8.687975 88.109528,19.569336 91.587173,35.427036 
	C94.496178,48.691841 91.729286,61.307068 83.233047,72.200874 
	C71.633499,87.073700 51.423119,93.429512 33.737331,86.875397 
	C16.518641,80.494385 5.719022,68.433411 3.924365,49.283195 
	C2.629815,35.469467 6.724658,23.451593 16.120012,13.780360 
	C20.602406,9.166349 27.169701,6.574325 32.806210,3.088396 
	C33.728519,2.517989 34.721359,2.061634 35.340801,1.276283 
	C43.354233,1.000000 51.708466,1.000000 60.531349,1.000000 
M40.158939,76.650734 
	C39.561146,76.428513 38.973335,76.173340 38.364105,75.988899 
	C23.599491,71.518997 17.578722,61.030106 15.134747,48.037807 
	C14.858109,46.567184 16.343573,44.765099 17.011940,43.116711 
	C17.674082,44.270863 18.868769,45.403881 18.915548,46.582458 
	C19.357416,57.715172 28.077370,70.000290 39.292156,71.883057 
	C48.634285,73.451439 58.306011,72.950714 67.737877,74.122223 
	C76.019981,75.150917 80.682091,71.648056 83.382263,64.000420 
	C72.157394,64.000420 61.028412,64.170494 49.908043,63.934448 
	C43.583580,63.800205 38.108261,61.610435 33.728489,56.503414 
	C28.238461,50.101780 28.317533,39.488777 35.650616,30.003874 
	C27.734968,30.003874 20.134497,29.863031 12.550008,30.147831 
	C11.339988,30.193268 9.583457,31.935440 9.129195,33.254631 
	C5.850741,42.775349 6.839945,52.106125 10.726619,61.309528 
	C17.972994,78.468491 37.578033,88.757408 56.065453,84.786781 
	C61.525139,83.614174 66.581329,80.562866 71.822426,78.372498 
	C71.667564,77.898460 71.512703,77.424423 71.357841,76.950386 
	C61.226498,76.950386 51.095150,76.950386 40.158939,76.650734 
M66.903816,18.410732 
	C79.964622,29.100924 82.254341,42.649750 78.090851,47.572758 
	C77.305466,44.499680 76.493347,41.972336 76.025665,39.382778 
	C73.629768,26.116615 61.596401,16.691912 49.373901,16.078127 
	C41.233711,15.669347 33.056377,15.999851 24.895666,16.000288 
	C18.334394,16.000639 14.389530,19.251186 12.866002,26.000076 
	C25.046072,26.000076 37.201672,25.984962 49.357216,26.004456 
	C60.828129,26.022850 69.829338,37.224922 66.936485,48.274323 
	C65.875610,52.326408 63.781788,56.108063 62.164524,60.000164 
	C68.612816,60.000164 75.441574,59.875336 82.261894,60.060650 
	C85.050354,60.136421 86.228447,59.193501 87.071884,56.503620 
	C91.733719,41.636166 87.668114,28.697199 77.861961,17.547607 
	C67.641129,5.926533 54.191170,2.293979 39.222782,5.186424 
	C34.394417,6.119442 29.901062,8.786127 25.254454,10.659730 
	C25.398523,11.106284 25.542591,11.552837 25.686661,11.999392 
	C32.293427,11.999392 38.901215,11.926152 45.506683,12.018822 
	C52.958073,12.123361 59.956059,13.926044 66.903816,18.410732 
M40.060062,47.644798 
	C39.514755,48.966133 38.969448,50.287472 38.322655,51.854717 
	C44.884628,51.854717 51.100487,51.854717 57.921482,51.854717 
	C54.517769,45.650677 51.296787,39.779709 47.942436,33.665646 
	C45.207123,38.561573 42.845760,42.788166 40.060062,47.644798 
M62.952137,39.902748 
	C60.725929,34.624138 57.611633,30.478127 50.564915,30.202732 
	C54.625290,37.482437 58.367085,44.190964 62.108875,50.899490 
	C62.649944,50.761612 63.191013,50.623737 63.732082,50.485859 
	C63.490921,47.228188 63.249760,43.970512 62.952137,39.902748 
M36.937595,35.586578 
	C33.412647,39.886223 32.891613,43.020248 34.779900,49.649410 
	C38.336258,43.158230 41.749027,36.929131 45.161793,30.700033 
	C44.793880,30.401609 44.425968,30.103186 44.058056,29.804762 
	C41.852547,31.550297 39.647034,33.295834 36.937595,35.586578 
M43.754780,59.012550 
	C48.855888,61.196846 53.272995,59.749748 58.459667,56.250740 
	C51.444271,56.250740 45.547752,56.250740 38.307465,56.250740 
	C40.588570,57.582291 41.765625,58.269371 43.754780,59.012550 
z"/>
<path fill="#050910" opacity="1.000000" stroke="none" 
	d="
M1.000000,73.416664 
	C1.896705,72.603683 2.793411,72.207375 3.910722,71.713554 
	C4.790641,73.328743 5.686913,74.973953 6.905162,77.210182 
	C5.094977,77.484413 3.418809,77.738342 1.371320,77.996140 
	C1.000000,76.611107 1.000000,75.222221 1.000000,73.416664 
z"/>
<path fill="#000000" opacity="1.000000" stroke="none" 
	d="
M40.561371,76.800560 
	C51.095150,76.950386 61.226498,76.950386 71.357841,76.950386 
	C71.512703,77.424423 71.667564,77.898460 71.822426,78.372498 
	C66.581329,80.562866 61.525139,83.614174 56.065453,84.786781 
	C37.578033,88.757408 17.972994,78.468491 10.726619,61.309528 
	C6.839945,52.106125 5.850741,42.775349 9.129195,33.254631 
	C9.583457,31.935440 11.339988,30.193268 12.550008,30.147831 
	C20.134497,29.863031 27.734968,30.003874 35.650616,30.003874 
	C28.317533,39.488777 28.238461,50.101780 33.728489,56.503414 
	C38.108261,61.610435 43.583580,63.800205 49.908043,63.934448 
	C61.028412,64.170494 72.157394,64.000420 83.382263,64.000420 
	C80.682091,71.648056 76.019981,75.150917 67.737877,74.122223 
	C58.306011,72.950714 48.634285,73.451439 39.292156,71.883057 
	C28.077370,70.000290 19.357416,57.715172 18.915548,46.582458 
	C18.868769,45.403881 17.674082,44.270863 17.011940,43.116711 
	C16.343573,44.765099 14.858109,46.567184 15.134747,48.037807 
	C17.578722,61.030106 23.599491,71.518997 38.364105,75.988899 
	C38.973335,76.173340 39.561146,76.428513 40.561371,76.800560 
z"/>
<path fill="#000000" opacity="1.000000" stroke="none" 
	d="
M66.582230,18.228691 
	C59.956059,13.926044 52.958073,12.123361 45.506683,12.018822 
	C38.901215,11.926152 32.293427,11.999392 25.686661,11.999392 
	C25.542591,11.552837 25.398523,11.106284 25.254454,10.659730 
	C29.901062,8.786127 34.394417,6.119442 39.222782,5.186424 
	C54.191170,2.293979 67.641129,5.926533 77.861961,17.547607 
	C87.668114,28.697199 91.733719,41.636166 87.071884,56.503620 
	C86.228447,59.193501 85.050354,60.136421 82.261894,60.060650 
	C75.441574,59.875336 68.612816,60.000164 62.164524,60.000164 
	C63.781788,56.108063 65.875610,52.326408 66.936485,48.274323 
	C69.829338,37.224922 60.828129,26.022850 49.357216,26.004456 
	C37.201672,25.984962 25.046072,26.000076 12.866002,26.000076 
	C14.389530,19.251186 18.334394,16.000639 24.895666,16.000288 
	C33.056377,15.999851 41.233711,15.669347 49.373901,16.078127 
	C61.596401,16.691912 73.629768,26.116615 76.025665,39.382778 
	C76.493347,41.972336 77.305466,44.499680 78.090851,47.572758 
	C82.254341,42.649750 79.964622,29.100924 66.582230,18.228691 
z"/>
<path fill="#000000" opacity="1.000000" stroke="none" 
	d="
M40.272232,47.329781 
	C42.845760,42.788166 45.207123,38.561573 47.942436,33.665646 
	C51.296787,39.779709 54.517769,45.650677 57.921482,51.854717 
	C51.100487,51.854717 44.884628,51.854717 38.322655,51.854717 
	C38.969448,50.287472 39.514755,48.966133 40.272232,47.329781 
z"/>
<path fill="#000000" opacity="1.000000" stroke="none" 
	d="
M62.980370,40.307793 
	C63.249760,43.970512 63.490921,47.228188 63.732082,50.485859 
	C63.191013,50.623737 62.649944,50.761612 62.108875,50.899490 
	C58.367085,44.190964 54.625290,37.482437 50.564915,30.202732 
	C57.611633,30.478127 60.725929,34.624138 62.980370,40.307793 
z"/>
<path fill="#000000" opacity="1.000000" stroke="none" 
	d="
M37.189560,35.313972 
	C39.647034,33.295834 41.852547,31.550297 44.058056,29.804762 
	C44.425968,30.103186 44.793880,30.401609 45.161793,30.700033 
	C41.749027,36.929131 38.336258,43.158230 34.779900,49.649410 
	C32.891613,43.020248 33.412647,39.886223 37.189560,35.313972 
z"/>
<path fill="#000000" opacity="1.000000" stroke="none" 
	d="
M43.348728,58.984505 
	C41.765625,58.269371 40.588570,57.582291 38.307465,56.250740 
	C45.547752,56.250740 51.444271,56.250740 58.459667,56.250740 
	C53.272995,59.749748 48.855888,61.196846 43.348728,58.984505 
z"/>
</svg>